<?xml version="1.0" encoding="utf-8"?>
<!-- Generator: Adobe Illustrator 19.0.0, SVG Export Plug-In . SVG Version: 6.00 Build 0)  -->
<svg version="1.1" id="Layer_1" xmlns="http://www.w3.org/2000/svg" xmlns:xlink="http://www.w3.org/1999/xlink" x="0px" y="0px"
	 viewBox="-132 192.4 133.5 17.6" style="enable-background:new -132 192.4 133.5 17.6;" xml:space="preserve">
<style type="text/css">
	.st0{fill:#252525;}
</style>
<g>
	<path class="st0" d="M-128.2,194.4h5.4c1.1,0,1.9,0,2.4,0.1c0.5,0.1,1,0.3,1.4,0.6c0.4,0.3,0.8,0.7,1,1.1c0.3,0.5,0.4,1,0.4,1.6
		c0,0.6-0.2,1.2-0.5,1.8c-0.3,0.5-0.8,0.9-1.4,1.2c0.8,0.2,1.5,0.7,1.9,1.2c0.4,0.6,0.7,1.3,0.7,2.1c0,0.6-0.1,1.2-0.4,1.8
		c-0.3,0.6-0.7,1.1-1.2,1.4c-0.5,0.3-1.1,0.6-1.8,0.6c-0.5,0-1.6,0.1-3.3,0.1h-4.6V194.4z M-125.5,196.7v3.1h1.8c1.1,0,1.7,0,2,0
		c0.5-0.1,0.8-0.2,1.1-0.5c0.3-0.3,0.4-0.6,0.4-1.1c0-0.4-0.1-0.8-0.3-1c-0.2-0.3-0.6-0.4-1-0.5c-0.3,0-1.1,0-2.3,0H-125.5z
		 M-125.5,202.1v3.6h2.5c1,0,1.6,0,1.9-0.1c0.4-0.1,0.7-0.3,1-0.5c0.3-0.3,0.4-0.7,0.4-1.2c0-0.4-0.1-0.8-0.3-1
		c-0.2-0.3-0.5-0.5-0.9-0.6c-0.4-0.1-1.2-0.2-2.4-0.2H-125.5z"/>
	<path class="st0" d="M-114.5,208v-13.6h5.8c1.5,0,2.5,0.1,3.2,0.4c0.7,0.2,1.2,0.7,1.6,1.3c0.4,0.6,0.6,1.3,0.6,2.1
		c0,1-0.3,1.9-0.9,2.5c-0.6,0.7-1.5,1.1-2.7,1.3c0.6,0.3,1.1,0.7,1.5,1.1c0.4,0.4,0.9,1.2,1.6,2.2l1.7,2.7h-3.3l-2-3
		c-0.7-1.1-1.2-1.7-1.4-2s-0.5-0.5-0.8-0.6c-0.3-0.1-0.8-0.2-1.4-0.2h-0.6v5.7H-114.5z M-111.8,200.2h2c1.3,0,2.1-0.1,2.5-0.2
		c0.3-0.1,0.6-0.3,0.8-0.6c0.2-0.3,0.3-0.6,0.3-1c0-0.5-0.1-0.8-0.4-1.1c-0.2-0.3-0.6-0.5-1-0.5c-0.2,0-0.9,0-2,0h-2.1V200.2z"/>
	<path class="st0" d="M-88.5,208h-3l-1.2-3.1h-5.4l-1.1,3.1h-2.9l5.3-13.6h2.9L-88.5,208z M-93.6,202.6l-1.9-5l-1.8,5H-93.6z"/>
	<path class="st0" d="M-87.1,208v-13.6h2.7l5.6,9.1v-9.1h2.6V208H-79l-5.5-8.9v8.9H-87.1z"/>
	<path class="st0" d="M-73.4,194.4h5c1.1,0,2,0.1,2.6,0.3c0.8,0.2,1.5,0.7,2.1,1.3c0.6,0.6,1,1.3,1.3,2.2c0.3,0.9,0.4,1.9,0.4,3.2
		c0,1.1-0.1,2.1-0.4,2.9c-0.3,1-0.8,1.8-1.5,2.4c-0.5,0.5-1.1,0.8-1.9,1.1c-0.6,0.2-1.4,0.3-2.4,0.3h-5.2V194.4z M-70.6,196.7v9h2.1
		c0.8,0,1.3,0,1.7-0.1c0.4-0.1,0.8-0.3,1.1-0.6s0.5-0.7,0.7-1.3c0.2-0.6,0.3-1.4,0.3-2.5c0-1.1-0.1-1.9-0.3-2.4
		c-0.2-0.6-0.4-1-0.8-1.3s-0.8-0.5-1.3-0.6c-0.4-0.1-1.1-0.1-2.3-0.1H-70.6z"/>
	<path class="st0" d="M-54.3,208v-13.6h2.7l5.6,9.1v-9.1h2.6V208h-2.8l-5.5-8.9v8.9H-54.3z"/>
	<path class="st0" d="M-28.4,208h-3l-1.2-3.1H-38l-1.1,3.1H-42l5.3-13.6h2.9L-28.4,208z M-33.4,202.6l-1.9-5l-1.8,5H-33.4z"/>
	<path class="st0" d="M-27,208v-13.6h4.1l2.5,9.3l2.4-9.3h4.1V208h-2.6v-10.7l-2.7,10.7h-2.6l-2.7-10.7V208H-27z"/>
	<path class="st0" d="M-11.1,208v-13.6H-1v2.3h-7.3v3h6.8v2.3h-6.8v3.7h7.6v2.3H-11.1z"/>
</g>
</svg>
